<svg version="1.1" id="Layer_1" xmlns="http://www.w3.org/2000/svg" xmlns:xlink="http://www.w3.org/1999/xlink" x="0px" y="0px"
	 width="100%" viewBox="0 0 496 496" enable-background="new 0 0 496 496" xml:space="preserve">
<path fill="#000000" opacity="1.000000" stroke="none" 
	d="
M310.213379,242.911530 
	C310.370819,249.164917 310.370819,249.164917 319.749084,253.740509 
	C310.576691,253.740509 302.696411,253.740509 294.793213,253.740509 
	C294.814453,253.435730 294.804626,252.853638 294.862671,252.846786 
	C302.361908,251.960999 301.846710,246.643524 301.773773,241.108002 
	C301.622406,229.624344 300.140808,218.189682 300.627563,206.688614 
	C300.683167,205.374863 300.672882,204.010895 299.157593,202.098022 
	C291.447723,219.787857 283.917175,237.066238 276.456299,254.184692 
	C273.104614,253.380371 272.586975,251.268295 271.765747,249.529633 
	C266.789276,238.994049 262.146423,228.290634 256.844421,217.923370 
	C254.126144,212.608124 255.283340,208.844727 260.163635,204.497864 
	C265.960907,216.469498 271.608429,228.131882 277.818817,240.956604 
	C280.919373,233.954529 283.524811,228.094833 286.110291,222.226349 
	C290.539612,212.172791 295.090637,202.169617 299.310944,192.028900 
	C300.942810,188.107727 303.163177,186.087479 307.570831,186.633789 
	C310.788422,187.032593 314.133423,186.060150 317.253510,187.189270 
	C317.435669,188.532227 316.713013,188.896255 315.869843,189.103760 
	C308.217804,190.986954 308.039398,190.989685 308.306854,198.607468 
	C308.820190,213.226974 309.556488,227.838654 310.213379,242.911530 
z"/>
<path fill="#000000" opacity="1.000000" stroke="none" 
	d="
M253.854797,168.691849 
	C252.752960,177.394165 252.752975,177.381989 244.394287,177.371811 
	C233.564819,177.358612 222.735229,177.391174 211.905960,177.342484 
	C210.146606,177.334579 208.271484,177.844147 206.505646,176.588287 
	C206.762604,176.167313 206.915802,175.546600 207.242523,175.435333 
	C214.763657,172.873810 214.754364,172.884109 214.752792,164.836411 
	C214.750137,151.174545 214.760544,137.512695 214.774902,123.850838 
	C214.784851,114.397636 214.791946,114.397644 206.510590,111.088898 
	C207.053497,108.915558 208.882660,109.686111 210.133621,109.679596 
	C222.128983,109.617180 234.125778,109.743240 246.120087,109.617798 
	C249.677628,109.580597 251.494095,110.722061 251.244751,114.463905 
	C251.028748,117.705482 251.786118,121.025711 250.629181,124.404602 
	C248.088272,124.031265 248.489914,121.884125 247.985107,120.570190 
	C246.187729,115.891792 243.188599,113.324631 237.926239,113.144463 
	C223.266266,112.642532 223.269669,112.539940 223.273529,127.128395 
	C223.273788,128.128036 223.050842,129.193542 223.319290,130.115601 
	C224.327621,133.579041 220.579254,138.852798 226.123138,140.434799 
	C234.601685,142.854233 241.723709,140.145020 244.722977,134.376328 
	C244.951477,133.936829 245.161758,133.487839 246.021973,133.223801 
	C247.679993,139.564972 247.169647,145.757248 247.145691,152.017471 
	C246.057190,151.959610 245.530823,152.053635 245.455139,151.910095 
	C241.818207,145.011765 233.071640,141.720963 225.549789,144.349258 
	C223.502380,145.064667 223.319748,146.595093 223.315247,148.309204 
	C223.297287,155.139908 223.308716,161.970703 223.297287,168.801437 
	C223.291763,172.098923 224.979263,173.686966 228.215927,173.759125 
	C230.047958,173.799957 231.898605,173.703812 233.708298,173.930038 
	C242.985443,175.089737 249.289795,171.747803 251.721207,162.315445 
	C251.832672,161.883041 252.254776,161.521469 252.565796,161.155441 
	C252.658630,161.046188 252.865906,161.034180 253.360550,160.853455 
	C255.146240,163.173889 254.100784,165.770966 253.854797,168.691849 
z"/>
<path fill="#000000" opacity="1.000000" stroke="none" 
	d="
M192.184570,112.152092 
	C193.989487,116.714920 193.098450,121.004845 193.212814,125.393799 
	C190.149094,125.215111 190.702240,122.745720 190.017014,121.325005 
	C187.349991,115.795242 184.036972,111.388046 177.096664,111.222557 
	C172.506302,111.113106 168.788193,112.461067 166.674637,116.614128 
	C164.500580,120.886055 164.556808,125.288307 167.230118,129.437454 
	C169.457657,132.894760 172.812424,135.102051 176.168655,137.293213 
	C180.628372,140.204803 185.246201,142.905182 189.504852,146.086182 
	C195.236023,150.367096 197.237274,156.428024 196.083466,163.355652 
	C194.910446,170.398788 190.504898,175.003876 183.881149,177.280396 
	C176.191391,179.923294 168.507645,179.504120 160.992233,176.343704 
	C159.432602,175.687820 157.600143,175.027664 157.342224,173.240692 
	C156.600327,168.100449 156.155014,162.917404 155.492111,156.821793 
	C159.216888,158.696518 159.126663,161.504456 160.090485,163.555664 
	C164.274490,172.460251 169.473541,176.162750 177.617065,175.717941 
	C184.609879,175.336014 189.442520,169.177612 188.131363,162.219879 
	C187.165207,157.092834 184.691559,152.897308 180.234863,149.993423 
	C175.630585,146.993347 170.970657,144.071594 166.462921,140.932022 
	C158.917633,135.676834 156.099396,128.395660 158.405045,120.661209 
	C160.524292,113.552078 167.195541,108.963394 176.108810,108.581757 
	C181.639679,108.344933 187.102051,108.579964 192.184570,112.152092 
z"/>
<path fill="#000000" opacity="1.000000" stroke="none" 
	d="
M279.189697,156.227783 
	C281.524170,153.911041 281.854004,150.020660 285.733795,149.587646 
	C285.958710,153.854630 222.680527,244.240585 217.746674,245.534882 
	C223.406616,235.090286 230.628769,225.622543 237.362289,215.856369 
	C244.171875,205.979858 251.108170,196.190643 257.999084,186.370316 
	C264.985474,176.413956 271.984253,166.466278 279.189697,156.227783 
z"/>
<path fill="#000000" opacity="1.000000" stroke="none" 
	d="
M257.805725,318.853210 
	C254.247757,313.338928 256.188202,307.752502 256.635559,301.566467 
	C261.814941,303.938568 261.847351,309.515961 265.677765,312.151642 
	C268.819183,309.091187 269.260406,304.141815 273.997314,301.435242 
	C275.381378,307.696655 275.468567,313.250885 274.030334,319.568298 
	C270.042145,316.519104 272.745544,312.771515 271.231812,309.836365 
	C268.808929,311.730194 268.499084,315.385376 265.698700,317.033264 
	C262.457245,315.888947 262.534027,312.017853 259.914978,310.342621 
	C258.503906,313.052673 260.530182,316.380676 257.805725,318.853210 
z"/>
<path fill="#000000" opacity="1.000000" stroke="none" 
	d="
M115.300552,317.499603 
	C115.287010,312.219086 115.287010,307.272675 115.287010,301.199463 
	C121.049644,303.771027 121.132706,309.239624 124.672409,311.954346 
	C128.360001,309.500031 128.341125,303.819336 133.581329,301.501648 
	C134.449905,307.759674 134.845016,313.348480 133.204147,319.528442 
	C129.336029,316.833344 131.797104,313.315948 130.185120,310.477386 
	C127.795586,312.111084 127.676651,315.776062 124.967598,317.105347 
	C121.866096,316.320282 122.105240,312.578308 119.496674,311.397705 
	C117.539261,312.920288 118.786179,315.075134 118.427994,316.889038 
	C117.986298,319.125824 117.364243,320.858307 115.300552,317.499603 
z"/>
<path fill="#000000" opacity="1.000000" stroke="none" 
	d="
M243.762085,237.089874 
	C243.795685,232.704346 243.597153,228.711395 248.041916,224.960098 
	C248.041916,229.418320 248.228394,232.928772 248.002945,236.412552 
	C247.540237,243.562485 245.910217,251.147888 257.074432,252.703888 
	C256.727478,253.065842 256.380524,253.427780 256.033569,253.789734 
	C249.386612,253.789734 242.739655,253.789734 235.236633,253.789734 
	C238.001678,251.027252 242.078766,251.169373 243.092255,247.425339 
	C243.983704,244.132126 243.505203,240.839661 243.762085,237.089874 
z"/>
<path fill="#000000" opacity="1.000000" stroke="none" 
	d="
M370.676270,306.277405 
	C370.841400,304.566864 370.420593,303.118927 372.231934,301.955719 
	C376.686462,303.711670 377.816498,309.302002 382.056580,311.752136 
	C383.683533,308.632538 381.607971,304.958954 384.007294,301.847168 
	C387.455109,304.445007 386.055847,307.841461 386.013580,310.655151 
	C385.971832,313.436493 387.750183,317.583282 384.415771,318.743134 
	C381.370087,319.802551 380.524384,315.368439 378.558136,313.527527 
	C377.123505,312.184387 376.007111,310.501373 374.386475,308.528809 
	C372.600403,312.066010 374.597595,316.030090 371.586182,320.201385 
	C369.919586,315.005432 370.990479,310.784119 370.676270,306.277405 
z"/>
<path fill="#000000" opacity="1.000000" stroke="none" 
	d="
M180.625488,319.267273 
	C179.999771,319.217987 179.599014,319.208374 179.384888,319.003601 
	C173.901764,313.759674 173.905151,313.756134 169.367004,318.886841 
	C167.862808,316.821747 166.667038,304.217651 168.236984,302.918396 
	C171.075180,300.569580 174.612762,301.442780 177.756104,302.187317 
	C180.808517,302.910278 183.195786,305.707397 181.964157,308.497772 
	C180.339264,312.179077 180.440872,315.568420 180.625488,319.267273 
M177.182846,310.827759 
	C179.227310,308.836121 179.386185,306.825104 176.969269,305.093964 
	C175.549210,304.076874 173.751938,303.980316 172.356277,305.039734 
	C170.690399,306.304230 170.836197,308.388641 171.477005,310.015228 
	C172.453537,312.493958 174.648636,311.616852 177.182846,310.827759 
z"/>
<path fill="#000000" opacity="1.000000" stroke="none" 
	d="
M319.408020,301.840607 
	C325.417603,304.631287 326.497742,306.729675 323.397339,311.898224 
	C321.637421,314.832062 324.824402,316.419830 324.014679,318.984650 
	C320.385895,319.595276 320.274139,315.197205 317.538635,314.510437 
	C313.558289,313.511108 314.480377,318.266754 311.087799,319.237335 
	C310.281586,313.681183 309.844818,308.187195 311.311737,303.156464 
	C312.169952,300.213287 316.316620,302.093719 319.408020,301.840607 
M316.134918,304.531708 
	C313.179596,305.491974 313.122650,307.843903 313.846222,310.123199 
	C314.608521,312.524536 316.820496,311.701630 318.463562,311.359222 
	C320.356171,310.964752 321.816071,309.735596 321.549042,307.562744 
	C321.213165,304.829132 319.165466,304.345856 316.134918,304.531708 
z"/>
<path fill="#000000" opacity="1.000000" stroke="none" 
	d="
M95.828140,307.585144 
	C97.934433,309.998718 101.381638,307.612427 103.281509,310.400513 
	C102.021057,312.654236 99.791969,311.684204 98.028328,312.015106 
	C96.591637,312.284637 95.393768,312.751434 95.509987,314.458191 
	C95.626709,316.172485 96.921959,316.472443 98.352150,316.556122 
	C100.502480,316.681824 103.001305,315.262878 105.125191,318.604980 
	C100.689354,319.622345 96.655579,320.106110 92.699951,318.375458 
	C91.461655,317.833649 91.285950,303.753998 92.569092,302.911377 
	C96.294838,300.464813 100.273331,301.804047 104.780106,302.107422 
	C103.289665,304.984222 101.311981,304.222229 99.689102,304.346069 
	C97.717064,304.496613 95.446198,304.143677 95.828140,307.585144 
z"/>
<path fill="#000000" opacity="1.000000" stroke="none" 
	d="
M227.915344,318.464417 
	C216.858261,321.105133 215.403351,320.231750 215.755280,310.464111 
	C215.859222,307.579346 213.466232,303.405518 218.038605,301.876862 
	C223.457993,300.065033 229.642380,302.389465 231.612091,306.461243 
	C233.516479,310.398041 232.301193,314.711151 227.915344,318.464417 
M218.415070,307.145233 
	C218.403046,309.283936 218.376617,311.422699 218.384644,313.561310 
	C218.389175,314.767334 218.599030,316.033966 219.976196,316.291656 
	C223.158859,316.887268 226.285614,316.904053 228.394394,313.826324 
	C230.433380,310.850403 229.852615,308.009186 227.098633,306.022736 
	C224.364944,304.050934 221.246475,302.708069 218.415070,307.145233 
z"/>
<path fill="#000000" opacity="1.000000" stroke="none" 
	d="
M298.946838,312.107819 
	C299.466766,314.662109 301.651398,316.358337 300.815002,320.063416 
	C295.589813,314.043335 290.200317,313.137878 284.373169,319.147827 
	C285.570984,312.839172 288.191559,307.495270 291.419617,302.518921 
	C292.491211,300.866974 294.082855,302.268646 294.832367,303.743500 
	C296.185059,306.405060 297.475250,309.098358 298.946838,312.107819 
M290.587646,310.809937 
	C290.868073,313.089600 292.743866,313.040253 293.726746,312.133759 
	C295.685303,310.327515 293.739777,308.875458 292.700287,306.833008 
	C291.851044,308.314026 291.301666,309.272064 290.587646,310.809937 
z"/>
<path fill="#000000" opacity="1.000000" stroke="none" 
	d="
M425.107910,301.654541 
	C427.952148,301.939850 430.515686,300.988617 433.041473,302.736237 
	C431.830109,307.864166 426.576172,310.555267 425.104797,315.363464 
	C427.343292,317.855896 430.960968,315.241638 433.466461,318.556335 
	C428.510590,320.134277 423.956177,319.136505 418.861053,319.274719 
	C420.161896,313.371582 425.288361,310.643463 427.144562,305.934113 
	C425.109406,303.151062 421.449554,305.556274 419.278717,303.133667 
	C420.707642,300.955200 422.871460,301.940399 425.107910,301.654541 
z"/>
<path fill="#000000" opacity="1.000000" stroke="none" 
	d="
M81.350037,317.114380 
	C76.281479,320.606537 71.916924,320.259003 69.283318,316.407471 
	C72.094467,314.940155 75.587189,318.443695 78.136414,315.165649 
	C78.354202,312.586273 76.203438,312.497559 74.573814,311.934418 
	C71.853203,310.994324 69.047173,310.118073 68.923729,306.561951 
	C68.852531,304.511047 70.087624,303.016266 71.924492,302.405731 
	C75.036362,301.371460 78.219337,300.775360 80.930801,303.662537 
	C79.407814,306.033325 77.750664,304.148834 76.294189,304.332153 
	C74.985542,304.496826 73.380310,304.177612 72.893608,305.734192 
	C72.299103,307.635529 73.954353,308.306274 75.297951,308.925201 
	C76.343010,309.406555 77.528343,309.588348 78.562683,310.087097 
	C81.406570,311.458527 83.188347,313.379944 81.350037,317.114380 
z"/>
<path fill="#000000" opacity="1.000000" stroke="none" 
	d="
M399.378418,301.912292 
	C403.043579,301.864197 406.352051,300.997009 409.791626,302.633728 
	C408.387573,305.089844 406.216278,304.197540 404.462067,304.381683 
	C402.805389,304.555573 400.781311,304.316040 400.620148,306.565918 
	C400.446625,308.987579 402.534088,308.789734 404.169556,308.943359 
	C405.749969,309.091827 407.574585,308.546204 408.603851,310.448090 
	C407.787262,312.590424 405.867157,311.839294 404.353058,312.060547 
	C402.738190,312.296478 400.558655,312.068207 400.717255,314.410065 
	C400.861633,316.541870 402.957855,316.412903 404.613983,316.612854 
	C406.288452,316.815094 408.307495,315.986664 409.749359,318.437836 
	C406.195404,320.102356 402.636719,319.245697 399.180054,319.165253 
	C398.270233,319.144043 397.565918,318.325500 397.645569,317.484406 
	C398.133209,312.333344 396.116974,306.968140 399.378418,301.912292 
z"/>
<path fill="#000000" opacity="1.000000" stroke="none" 
	d="
M204.649689,317.818512 
	C201.615158,320.566071 197.369919,320.259857 194.906464,318.940582 
	C189.836227,316.225281 193.564835,310.625244 192.727356,306.356140 
	C192.379639,304.583557 192.143250,301.993683 195.131744,301.832794 
	C198.201523,301.667480 201.356705,301.102478 204.659103,302.554321 
	C203.234329,305.347595 200.819672,304.071747 198.963440,304.313019 
	C197.355453,304.522034 195.828995,304.826141 195.671356,306.656982 
	C195.485931,308.810547 197.259598,308.757538 198.764130,308.931580 
	C200.468338,309.128723 202.504837,308.362091 203.656952,310.501526 
	C202.321960,312.718109 200.067062,311.675781 198.244629,312.043549 
	C196.823761,312.330292 195.561295,312.808350 195.566513,314.439636 
	C195.571945,316.141357 196.892731,316.463623 198.330582,316.631317 
	C200.412048,316.874146 202.665970,315.842957 204.649689,317.818512 
z"/>
<path fill="#000000" opacity="1.000000" stroke="none" 
	d="
M203.870453,348.003662 
	C202.466049,351.072113 202.466049,351.072113 198.924515,346.709106 
	C198.508881,349.068115 197.967667,351.344757 194.628433,349.644531 
	C195.129257,346.994934 195.837509,344.297363 196.105392,341.556732 
	C196.418076,338.357544 197.941406,337.194611 201.009735,337.808868 
	C204.231979,338.453949 204.505905,340.375427 203.249176,342.954681 
	C202.427856,344.640320 202.969482,346.178497 203.870453,348.003662 
z"/>
<path fill="#000000" opacity="1.000000" stroke="none" 
	d="
M300.287018,347.416382 
	C300.174225,345.899719 299.941559,344.672485 300.272736,343.623199 
	C301.347382,340.218658 303.271881,337.674408 307.321381,337.720612 
	C310.086212,337.752167 311.761902,339.200806 312.180176,341.809448 
	C312.768494,345.478333 311.409851,348.452850 308.015381,350.084686 
	C304.938385,351.563812 302.164795,351.160767 300.287018,347.416382 
M308.600189,342.222931 
	C308.221008,340.838593 307.557709,339.417206 305.911560,340.252258 
	C303.965149,341.239655 303.410950,343.273865 303.515717,345.370087 
	C303.575867,346.573669 304.073456,347.815582 305.384430,348.011719 
	C307.234314,348.288452 307.998901,346.844696 308.460663,345.376251 
	C308.702087,344.608459 308.608307,343.735229 308.600189,342.222931 
z"/>
<path fill="#000000" opacity="1.000000" stroke="none" 
	d="
M324.993347,348.746368 
	C323.873413,347.387848 323.790955,345.621429 322.351379,345.134521 
	C319.379211,345.515442 322.200165,350.395874 317.924652,350.125610 
	C318.663239,346.004791 320.010956,342.262878 319.605682,338.357513 
	C323.944855,336.620117 323.770905,341.563934 326.346619,342.351685 
	C328.006500,341.398743 325.851379,337.006744 330.298340,338.157257 
	C329.584381,341.564056 328.931671,344.905518 328.171326,348.222290 
	C327.711517,350.227783 326.730469,350.847595 324.993347,348.746368 
z"/>
<path fill="#000000" opacity="1.000000" stroke="none" 
	d="
M223.370331,342.201965 
	C223.439575,344.290985 223.285141,345.924194 222.246170,347.326111 
	C220.344360,349.892242 217.958954,351.577667 214.642929,350.488373 
	C211.740662,349.534943 211.304871,347.002258 211.692932,344.407837 
	C212.220337,340.881836 213.898178,338.198792 217.818375,337.703033 
	C220.933990,337.309021 222.953476,338.468781 223.370331,342.201965 
M215.606186,347.294495 
	C216.985413,348.985870 218.395676,348.352631 219.079224,346.876160 
	C220.180954,344.496490 220.585480,341.947906 218.128235,339.564545 
	C214.844879,341.132660 215.030457,343.848633 215.606186,347.294495 
z"/>
<path fill="#000000" opacity="1.000000" stroke="none" 
	d="
M252.081177,349.614075 
	C249.437714,350.739288 247.046951,350.976288 244.709061,349.704407 
	C245.893539,338.094208 245.424820,335.735870 253.641876,338.990936 
	C250.393738,341.062958 253.638885,346.521362 248.882614,347.221069 
	C248.969513,350.332672 253.206223,344.327209 252.081177,349.614075 
z"/>
<path fill="#000000" opacity="1.000000" stroke="none" 
	d="
M150.030365,301.689270 
	C152.840973,301.892303 155.356903,301.101105 157.897720,302.792999 
	C156.382889,304.833740 154.474930,304.269775 152.821121,304.380615 
	C150.838882,304.513428 148.484207,304.203461 148.517548,307.157227 
	C148.547302,309.793640 150.702957,309.541748 152.526917,309.700470 
	C153.886154,309.818787 155.578598,309.195374 156.688690,311.783997 
	C152.346283,312.610321 145.907288,311.221802 148.707428,320.760681 
	C147.695724,320.169647 146.684021,319.578644 145.672318,318.987610 
	C145.672318,314.466339 145.747498,309.943329 145.644836,305.424377 
	C145.580719,302.602142 146.906677,301.518463 150.030365,301.689270 
z"/>
<path fill="#000000" opacity="1.000000" stroke="none" 
	d="
M179.358627,346.917236 
	C179.972321,343.824097 180.492706,341.078888 180.988052,338.465698 
	C182.126358,337.504028 183.324890,337.745026 184.462814,337.744476 
	C186.396271,337.743530 188.301025,338.124573 188.749741,340.307068 
	C189.152893,342.268005 188.147079,344.047546 186.402740,344.846497 
	C184.362762,345.780945 182.485641,346.473419 182.259232,349.165070 
	C182.151047,350.451324 180.813904,350.463715 179.874634,350.157837 
	C178.178131,349.605347 179.024094,348.331238 179.358627,346.917236 
z"/>
<path fill="#000000" opacity="1.000000" stroke="none" 
	d="
M278.118530,347.220398 
	C277.747833,346.251251 277.454681,345.449921 276.924713,344.862091 
	C275.382843,343.151978 274.128510,341.340790 275.995056,339.233215 
	C277.746460,337.255646 279.907440,337.292297 282.471680,338.695496 
	C281.321198,341.091553 280.656189,343.161346 281.912689,345.875519 
	C283.033600,348.296814 280.778198,350.229706 278.240509,350.635193 
	C275.869934,351.014038 273.579437,350.670197 273.916138,347.544678 
	C275.612274,345.927338 276.665588,349.312317 278.118530,347.220398 
z"/>
<path fill="#000000" opacity="1.000000" stroke="none" 
	d="
M267.280212,344.897522 
	C268.126282,348.934570 266.028046,350.581085 262.798035,350.816254 
	C260.849060,350.958160 258.669495,350.437256 259.421814,347.590912 
	C261.233398,345.904633 261.945831,349.268250 263.650146,347.995514 
	C264.740295,346.291840 263.045532,345.537231 262.101807,344.544525 
	C260.834747,343.211731 260.301483,341.714172 261.098145,339.998047 
	C261.891357,338.289185 263.388397,337.692108 265.210175,337.775635 
	C266.607758,337.839722 268.095428,338.010620 268.060577,339.797455 
	C268.011658,342.303925 265.970215,340.269043 265.001190,340.975525 
	C264.683777,342.772278 266.658600,343.253601 267.280212,344.897522 
z"/>
<path fill="#000000" opacity="1.000000" stroke="none" 
	d="
M340.885254,301.654724 
	C343.050781,301.905396 344.977203,301.129150 346.937347,303.122559 
	C339.472656,304.709961 341.426880,310.217285 341.561768,315.021332 
	C341.605255,316.569458 342.343781,318.411499 339.772736,319.241302 
	C337.670410,317.042725 338.591888,314.255493 338.724915,311.834198 
	C338.960571,307.544495 338.858002,303.814209 332.704437,303.616516 
	C335.242645,300.603943 338.062683,302.113556 340.885254,301.654724 
z"/>
<path fill="#000000" opacity="1.000000" stroke="none" 
	d="
M344.437134,343.713074 
	C344.886932,345.850494 345.830414,347.510925 345.428864,349.446777 
	C341.989044,352.064392 342.298462,347.234955 340.335236,346.844177 
	C337.980927,346.713959 338.853821,351.999237 334.923035,349.640686 
	C337.016846,345.741486 338.918915,341.701111 342.068176,338.287994 
	C344.020355,339.738495 344.157684,341.554657 344.437134,343.713074 
z"/>
<path fill="#000000" opacity="1.000000" stroke="none" 
	d="
M159.473312,344.088257 
	C158.772827,346.742065 160.230576,350.547516 155.279434,350.051270 
	C154.618576,346.313934 158.432587,342.104919 153.461029,338.964325 
	C157.073410,337.014618 160.201797,337.692444 163.382401,338.144501 
	C164.661194,342.019562 158.702667,340.462921 159.473312,344.088257 
z"/>
<path fill="#000000" opacity="1.000000" stroke="none" 
	d="
M233.667847,346.766174 
	C233.647018,349.762360 232.781433,351.067078 229.760376,349.674835 
	C230.402679,345.825439 231.018524,342.134735 231.669540,338.233154 
	C234.290405,337.807373 236.905487,336.693237 239.027771,339.158997 
	C238.458984,341.790955 236.144394,339.230011 235.475952,340.647949 
	C234.742722,342.607971 237.766296,342.802124 236.847092,344.867859 
	C235.987473,345.323029 234.893799,345.902069 233.667847,346.766174 
z"/>
<path fill="#000000" opacity="1.000000" stroke="none" 
	d="
M354.012146,343.330780 
	C355.263000,341.286316 353.198212,336.961670 358.333496,338.177368 
	C357.789001,341.425720 357.261993,344.569824 356.786011,347.409668 
	C358.517883,349.489136 359.672791,346.855835 361.045197,347.472626 
	C361.165009,347.790863 361.454529,348.179810 361.357422,348.358002 
	C359.293304,352.144897 356.109497,350.155518 352.845612,350.099396 
	C353.232666,347.790161 353.576111,345.740997 354.012146,343.330780 
z"/>
<path fill="#000000" opacity="1.000000" stroke="none" 
	d="
M359.276825,310.978210 
	C359.016541,313.928009 360.049744,316.643494 358.151947,318.991608 
	C354.982056,316.005859 354.914978,305.534119 358.021667,302.021973 
	C360.124786,304.683807 358.921051,307.731750 359.276825,310.978210 
z"/>
<path fill="#000000" opacity="1.000000" stroke="none" 
	d="
M291.444305,350.027344 
	C290.802887,350.192993 290.334381,350.356506 290.171082,350.200531 
	C286.950531,347.124695 290.410156,344.017456 290.236511,340.890045 
	C290.141571,339.179901 290.747589,337.069550 293.839233,338.170654 
	C293.649750,342.113770 292.766571,346.004272 291.444305,350.027344 
z"/>
<path fill="#000000" opacity="1.000000" stroke="none" 
	d="
M146.311111,340.546509 
	C145.739182,343.156738 145.274734,345.411560 144.806473,347.665619 
	C144.492722,349.175873 144.229706,350.753601 141.716080,349.857788 
	C140.672318,346.340881 142.899643,342.974396 142.742050,339.433990 
	C142.688171,338.224121 143.661743,337.770752 144.786926,337.827057 
	C146.327652,337.904144 146.750595,338.797760 146.311111,340.546509 
z"/>
</svg>